<?xml version="1.0" encoding="UTF-8" standalone="no"?>
<svg
   xmlns:dc="http://purl.org/dc/elements/1.1/"
   xmlns:cc="http://creativecommons.org/ns#"
   xmlns:rdf="http://www.w3.org/1999/02/22-rdf-syntax-ns#"
   xmlns:svg="http://www.w3.org/2000/svg"
   xmlns="http://www.w3.org/2000/svg"
   xmlns:sodipodi="http://sodipodi.sourceforge.net/DTD/sodipodi-0.dtd"
   xmlns:inkscape="http://www.inkscape.org/namespaces/inkscape"
   id="svg26"
   version="1.1"
   viewBox="0 0 210 210"
   height="210mm"
   width="210mm"
   sodipodi:docname="drawing.svg"
   inkscape:version="1.0.1 (3bc2e813f5, 2020-09-07)">
  <defs
     id="defs20" />
  <sodipodi:namedview
     id="base"
     pagecolor="#ffffff"
     bordercolor="#666666"
     borderopacity="1.0"
     inkscape:pageopacity="0.0"
     inkscape:pageshadow="2"
     inkscape:zoom="1"
     inkscape:cx="181.02911"
     inkscape:cy="401.99094"
     inkscape:document-units="mm"
     inkscape:current-layer="layer1"
     inkscape:document-rotation="0"
     showgrid="false"
     inkscape:window-width="1848"
     inkscape:window-height="1016"
     inkscape:window-x="72"
     inkscape:window-y="27"
     inkscape:window-maximized="1" />
  <metadata
     id="metadata23">
    <rdf:RDF>
      <cc:Work
         rdf:about="">
        <dc:format>image/svg+xml</dc:format>
        <dc:type
           rdf:resource="http://purl.org/dc/dcmitype/StillImage" />
        <dc:title></dc:title>
      </cc:Work>
    </rdf:RDF>
  </metadata>
  <g
     inkscape:label="Layer 1"
     inkscape:groupmode="layer"
     id="layer1">
    <path
       id="path717"
       style="fill:#ffffff;stroke:#ffffff;stroke-width:0.999999"
       transform="scale(0.26458333)"
       d="m 368.95898,111.34961 c -0.56152,0.22898 -1.12398,0.45746 -1.68554,0.70312 -10.62662,-2.25999 -10.58751,3.27518 -11.43946,8.82618 -9.7473,48.23272 -26.59108,94.75723 -43.8164,140.7207 -16.99862,41.00892 -23.56097,58.86709 -44.00781,99.38867 -25.57525,50.68508 -54.78537,98.80053 -90.46485,143.06836 -10.0099,12.41938 -21.11606,23.91395 -31.67383,35.87109 -32.4762,29.90922 -23.47203,23.55484 -56.158199,47.06641 -9.893446,7.11649 -20.898924,13.09887 -32.626953,16.5625 -0.01884,0.0142 -0.03366,0.0288 -0.05273,0.043 -3.38205,2.51078 -6.794682,5.07914 -9.658203,8.19336 -0.01677,0.0182 -0.013,0.0154 -0.0293,0.0332 7.958705,-2.58113 15.549004,-6.40358 22.761719,-10.54297 21.849388,-12.53937 36.681838,-21.37404 55.585938,-37.65039 10.02561,-8.63198 19.23057,-18.1728 28.8457,-27.25976 10.22788,-11.8526 20.98452,-23.26954 30.6836,-35.5586 21.43353,-27.157 43.64206,-60.34006 60.90234,-90.18945 9.89722,-17.11593 19.02433,-34.67471 27.9043,-52.33984 20.31871,-40.42052 27.58505,-59.10787 45,-99.91211 14.13925,-35.26359 27.43904,-70.92276 38.75586,-107.19922 1.0162,17.14195 1.31061,15.25247 5.1875,42.38086 3.01298,12.34973 5.31316,24.89516 9.03906,37.04883 9.23139,30.11239 22.48711,62.62128 39.03906,89.3789 20.20347,32.66052 48.59143,66.36883 77.1836,91.92188 15.03424,13.43626 32.02648,24.50773 48.03906,36.76172 17.38352,8.86662 33.97521,19.49561 52.15039,26.5996 36.79525,14.38205 73.48704,20.11315 112.86133,19.93555 19.59609,-0.0885 39.0484,-1.98643 58.32617,-5.06055 3.99121,-1.70333 7.98232,-3.40621 11.97461,-5.10937 -21.38658,3.71766 -43.00557,6.06287 -64.72266,6.18164 -39.2005,0.2143 -76.12068,-5.48725 -112.81445,-19.64453 -18.21657,-7.02837 -34.87628,-17.5661 -52.31445,-26.34961 -16.01609,-12.2129 -33.0446,-23.202 -48.04883,-36.63867 -29.47975,-26.39993 -55.75921,-58.3563 -75.98633,-92.37891 -16.13367,-27.13729 -28.7239,-59.73269 -37.18555,-90.17187 -3.42275,-12.31276 -5.3129,-25.00132 -7.96875,-37.50196 -3.15804,-29.93028 -3.55201,-25.70825 -3.68359,-52.53711 -0.0246,-4.98977 0.13136,-9.98039 0.3164,-14.96679 0.10368,-2.7931 3.24031,-7.61346 0.54883,-8.36719 -0.10613,-0.0297 -0.19442,-0.0457 -0.29883,-0.0742 0.11752,-0.23835 0.21796,-0.45868 0.30274,-0.66211 -0.0431,-0.0242 -0.0845,-0.0511 -0.12695,-0.0762 -0.0805,-0.0471 -0.16487,-0.0877 -0.24024,-0.14258 -0.23058,-0.16795 -0.29584,-0.23722 -0.4043,-0.35156 z" />
    <path
       style="fill:#ffffff;stroke:#ffffff;stroke-width:0.264583"
       id="path735"
       d="m 131.0583,108.29712 c -2.28123,1.2713 -4.62074,2.45171 -7.03812,3.44386 -0.944,0.38744 -1.90272,0.73799 -2.85408,1.10699 -4.7221,1.62022 -9.56797,2.91686 -14.48259,3.80593 -3.15193,0.57019 -4.33535,0.66369 -7.486629,1.03862 -4.16501,0.43603 -8.354772,0.52735 -12.532921,0.25622 -1.94869,-0.12646 -3.264379,-0.27936 -5.193599,-0.47771 -2.653321,-0.28268 -5.298736,-0.6626 -7.899474,-1.26744 -1.235315,-0.28729 -1.556707,-0.40001 -2.728055,-0.74702 -1.29291,-0.3891 -2.557692,-0.8623 -3.795794,-1.39921 -0.690203,-0.29675 -1.389751,-0.5723 -2.075786,-0.87862 -0.494287,-0.19717 -0.952228,-0.46115 -1.400228,-0.74498 0,0 -2.348884,1.5104 -2.348884,1.5104 v 0 c 0.457999,0.29513 0.922661,0.57785 1.43578,0.7698 0.684665,0.3126 1.382432,0.59736 2.076538,0.88785 1.285152,0.5149 2.588855,0.98354 3.925691,1.34866 1.085453,0.30566 1.656647,0.48118 2.783951,0.73293 2.639973,0.58957 5.324187,0.94979 8.013655,1.2193 2.706386,0.26572 5.41337,0.53134 8.134237,0.59583 2.212601,0.0524 4.069032,7.9e-4 6.284266,-0.14305 1.160008,-0.0754 2.316935,-0.19235 3.475403,-0.28852 2.996789,-0.35919 4.520469,-0.49897 7.511019,-1.03341 4.8859,-0.87316 9.70267,-2.15625 14.41481,-3.70527 0.93358,-0.35063 1.87392,-0.68381 2.80076,-1.0519 2.33469,-0.9272 4.59403,-2.03954 6.8066,-3.22563 0,0 2.17345,-1.75363 2.17345,-1.75363 z" />
    <path
       id="path747"
       style="fill:#ffffff;stroke:#ffffff;stroke-width:0.999999"
       transform="scale(0.26458333)"
       d="m 750.07422,294.77344 -6.75,2.90234 c -4.60381,6.14601 -9.06984,12.39992 -13.8125,18.43945 -21.04577,26.80072 -43.82461,52.23208 -69.2168,75.02149 -25.39986,20.87418 -37.25076,32.2002 -65.29883,49.125 -39.50301,23.83703 -82.71636,41.82672 -127.81054,51.85547 -14.52495,3.23025 -29.38802,4.68902 -44.08203,7.0332 -13.58828,0.45657 -27.1779,1.89544 -40.76368,1.36914 -11.71492,-0.45384 -23.3876,-2.12782 -34.9082,-4.30078 -26.58281,-5.01388 -51.79761,-15.09377 -75.2168,-28.44922 -5.05849,-2.88476 -9.82687,-6.24944 -14.74023,-9.375 -9.29433,-7.17539 -18.26343,-12.59806 -21.54102,-24.35742 l -9.23437,5.01562 c 1.57053,4.3222 3.64539,8.59732 6.98437,11.86329 4.97805,4.8692 10.50098,8.25244 16.23829,12.26562 5.14262,3.00794 10.16324,6.2343 15.42773,9.02344 24.22462,12.83437 49.89354,22.71375 76.99219,27.51953 11.69737,2.07447 23.53538,3.69791 35.41015,4.04687 13.83457,0.40653 27.65468,-1.19153 41.48243,-1.7871 40.91157,-6.71199 49.51459,-6.36793 89.18164,-20.04883 44.37471,-15.30456 85.8293,-38.09394 123.61914,-65.82422 11.32716,-8.3119 21.73193,-17.81406 32.59765,-26.72071 25.86785,-23.09558 49.08917,-48.87713 70.84961,-75.8164 4.98452,-6.17082 9.72823,-12.53418 14.5918,-18.80078 z" />
    <path
       style="fill:#ffffff;stroke:#ffffff;stroke-width:0.264583"
       id="path749"
       d="m 196.62456,78.96675 c -0.15708,1.336632 -0.39724,2.679369 -0.29709,4.031109 0.0675,0.911019 0.17835,1.155314 0.41554,2.001801 0.268,0.806809 0.72173,1.484979 1.29991,2.094375 0,0 2.36466,-1.447937 2.36466,-1.447937 v 0 c -0.57608,-0.552644 -1.02876,-1.173338 -1.29387,-1.938965 -0.2369,-0.807281 -0.35133,-1.046543 -0.41136,-1.920438 -0.0934,-1.359797 0.16342,-2.7202 0.44296,-4.04313 0,0 -2.52075,1.223185 -2.52075,1.223185 z" />
    <path
       style="fill:#ffffff;stroke:#ffffff;stroke-width:0.264583"
       id="path761"
       d="m 199.34014,77.861344 c -0.88461,0.232863 -1.7975,0.478909 -2.72228,0.438904 -0.9367,-0.04052 -1.22913,-0.188111 -2.15318,-0.452765 -1.1155,-0.369234 -2.1794,-0.864921 -3.23817,-1.368748 0,0 -2.23685,1.480024 -2.23685,1.480024 v 0 c 1.07733,0.49644 2.15888,0.984789 3.27526,1.389046 0.89479,0.292338 1.24744,0.468506 2.16629,0.550672 0.91002,0.08138 1.80981,-0.139052 2.69081,-0.329697 0,0 2.21812,-1.707436 2.21812,-1.707436 z" />
    <path
       style="fill:#ffffff;stroke:#ffffff;stroke-width:0.264583"
       id="path871"
       d="m 63.882878,112.58643 c -0.284636,-0.30323 -0.516888,-0.65074 -0.750459,-0.99349 0,0 -0.401341,0.23596 -0.401341,0.23596 v 0 c 0.237405,0.34174 0.467169,0.69026 0.730869,1.01256 0,0 0.420931,-0.25503 0.420931,-0.25503 z" />
    <path
       style="fill:#ffffff;stroke:#ffffff;stroke-width:0.264583"
       id="path873"
       d="m 63.507206,112.8568 c -0.108884,-0.19189 -0.23687,-0.37084 -0.37611,-0.5416 -0.02159,-0.024 -0.04317,-0.048 -0.06475,-0.072 0,0 -0.416518,0.25307 -0.416518,0.25307 v 0 c 0.02178,0.0228 0.04357,0.0456 0.06536,0.0685 0.140692,0.16689 0.269743,0.34351 0.363683,0.54162 0,0 0.428339,-0.24959 0.428339,-0.24959 z" />
    <path
       style="fill:#ffffff;stroke:#ffffff;stroke-width:0.264583"
       id="path875"
       d="m 62.356711,115.19533 c -0.01159,-0.36049 -0.01307,-0.72121 -0.01347,-1.08186 0.0016,-0.29697 5.29e-4,-0.15397 0.0034,-0.42899 0,0 -0.421275,0.21465 -0.421275,0.21465 v 0 c 0.003,0.27241 0.0019,0.13057 0.0034,0.42553 -5.29e-4,0.36523 -0.0021,0.73052 -0.01347,1.09559 0,0 0.441441,-0.22492 0.441441,-0.22492 z" />
    <path
       style="fill:#ffffff;stroke:#ffffff;stroke-width:0.264583"
       id="path877"
       d="m 62.037843,115.28255 c -0.06691,-0.26824 -0.08372,-0.54492 -0.113043,-0.8188 0,0 -0.42934,0.22515 -0.42934,0.22515 v 0 c 0.03567,0.27611 0.05961,0.55393 0.110239,0.82797 0,0 0.432144,-0.23432 0.432144,-0.23432 z" />
    <path
       style="fill:#ffffff;stroke:#ffffff;stroke-width:0.264583"
       id="path879"
       d="m 61.399178,115.42546 c -0.0061,-0.14657 -0.0055,-0.29329 -0.0056,-0.43995 0,0 -0.426273,0.2172 -0.426273,0.2172 v 0 c -1.48e-4,0.14856 5.29e-4,0.29719 -0.0056,0.44567 0,0 0.437521,-0.22292 0.437521,-0.22292 z" />
    <path
       style="fill:#ffffff;stroke:#ffffff;stroke-width:0.707107"
       d="m 366.94305,110.44866 c -4.34972,-0.10219 -10.31863,0.37971 -11.27366,5.70381 -4.25276,19.12779 -8.61329,38.23175 -14.43886,56.97321 -18.97603,62.11085 -42.76304,122.79645 -71.24814,181.18808 -34.96363,69.58256 -76.61249,137.00402 -132.60321,191.72234 -13.26716,12.91956 -27.16935,25.29128 -42.566492,35.67952 -11.27089,8.24593 -22.968089,15.90568 -36.349111,20.19159 -4.693973,2.43298 -8.920583,5.82702 -12.603626,9.57494 -0.05893,3.3634 4.291715,0.48441 5.876356,0.0237 19.035351,-8.10482 36.620038,-19.2872 53.827253,-30.68448 36.85986,-26.44116 66.97461,-61.07906 94.0858,-97.15661 9.68,-12.96918 18.69193,-26.416 27.60005,-39.92161 6.3746,11.57674 18.72702,17.8982 29.40294,24.87718 37.06556,21.68928 79.45773,35.01406 122.49934,36.26271 32.01487,0.14997 63.92479,-4.44325 95.12105,-11.38 28.81603,-7.41131 56.83136,-18.08453 83.67477,-30.71358 5.33699,1.28815 10.39844,4.74413 15.56573,6.93136 48.30901,23.37718 103.40796,29.77357 156.46573,25.2717 14.22085,-1.68878 29.60606,-1.58018 42.16526,-9.30219 0.0696,-2.94279 -4.1674,-0.80585 -5.90993,-0.99216 -57.23941,9.27899 -117.52138,6.99052 -171.90813,-14.51468 -9.09366,-3.68485 -18.21302,-7.53768 -26.61589,-12.57855 33.73419,-17.57354 65.52441,-38.97799 93.9651,-64.27214 29.09309,-25.48993 55.17404,-54.25339 79.16972,-84.54484 -0.0906,7.68138 1.34726,16.70683 7.74779,21.63305 3.19222,-1.95223 7.00674,-3.52524 9.64121,-6.16924 -1.75568,-4.39609 -5.45095,-8.20518 -5.73004,-13.25548 -1.07732,-5.87313 1.04892,-11.94946 1.3493,-17.64729 -2.35906,-1.5788 -5.28604,1.4995 -7.99913,0.93775 -8.50438,1.23764 -15.96146,-4.22258 -23.70189,-6.19133 -2.52105,2.52334 -8.17174,3.66 -8.82817,7.07406 7.39443,4.20235 15.81007,7.56029 24.44529,8.05692 -16.95195,22.50581 -35.15754,44.18112 -54.88086,64.30568 -34.92404,34.88706 -73.95752,66.4294 -118.55089,88.10897 -21.85653,-10.00493 -40.73456,-25.14981 -59.75067,-39.60931 -17.0163,-13.72352 -32.12957,-29.66634 -46.691,-45.93818 -28.08237,-33.12489 -51.28605,-70.70519 -65.68133,-111.82792 -13.92987,-38.29975 -22.14779,-78.73343 -21.94982,-119.52407 -0.0672,-8.20835 -0.23925,-16.47424 1.58096,-24.48531 -0.19458,-2.46691 -2.42917,-4.23779 -4.9028,-3.80761 z m -9.8774,48.31252 c 5.11494,52.1272 20.90112,103.1551 45.67665,149.27654 21.80728,39.40477 51.7252,73.66597 84.21832,104.59413 -35.73011,17.74659 -74.96194,27.14902 -114.50434,31.13067 -19.74634,0.96727 -39.55752,2.11244 -59.18157,-0.50792 -23.79305,-2.27593 -47.94517,-6.45903 -69.15831,-18.03432 -1.78196,-1.02734 -4.56926,-2.67257 -2.29258,-4.83374 19.25599,-33.22312 36.57922,-67.56051 52.8422,-102.3373 23.44771,-52.20419 44.40574,-105.53704 62.33887,-159.88882 z M 490.16746,415.5901 c 20.48435,15.50783 40.46918,32.1314 63.4628,43.95271 2.95949,1.38518 -3.42589,2.42641 -4.54954,3.53774 -37.7153,17.06635 -77.94049,29.44165 -119.19161,33.6085 -26.1189,3.07772 -52.65213,4.32042 -78.51988,-1.08157 -36.04049,-6.5552 -70.93634,-21.39549 -100.18765,-43.61108 -5.73878,-4.31101 -10.87466,-9.70249 -13.52859,-16.4775 15.10083,6.10529 30.74724,11.01765 46.96587,13.04727 33.12519,4.97208 66.95059,5.63972 100.1082,0.55902 32.06803,-4.88299 63.93483,-13.11085 93.3346,-27.01636 4.21412,-1.824 7.93313,-4.70409 12.1058,-6.51873 z"
       id="path1060"
       transform="scale(0.26458333)" />
    <ellipse
       style="fill:#ffffff;stroke:#ffffff;stroke-width:0.264583"
       id="path1064"
       cx="93.207573"
       cy="91.509972"
       rx="1.7088854"
       ry="1.3482511" />
  </g>
</svg>
